<?xml version="1.0" standalone="no"?>
<!DOCTYPE svg PUBLIC "-//W3C//DTD SVG 20010904//EN"
 "http://www.w3.org/TR/2001/REC-SVG-20010904/DTD/svg10.dtd">
<svg version="1.0" xmlns="http://www.w3.org/2000/svg"
 width="254.000000pt" height="254.000000pt" viewBox="0 0 254.000000 254.000000"
 preserveAspectRatio="xMidYMid meet">
<metadata>
Created by potrace 1.14, written by Peter Selinger 2001-2017
</metadata>
<g transform="translate(0.000000,254.000000) scale(0.100000,-0.100000)"
fill="#000000" stroke="none">
<path d="M1095 2500 c-143 -27 -237 -59 -330 -112 -11 -7 -40 -23 -65 -36 -25
-13 -52 -30 -61 -38 -8 -8 -19 -14 -23 -14 -26 0 -258 -224 -305 -293 -166
-248 -225 -414 -256 -720 -10 -97 19 -295 62 -425 25 -77 94 -226 136 -293 53
-85 179 -219 287 -304 63 -49 216 -130 305 -163 159 -57 348 -80 521 -64 265
26 539 159 738 358 76 77 173 198 207 259 126 229 168 374 176 605 4 121 2
179 -12 258 -27 164 -91 331 -172 453 -16 23 -32 49 -38 58 -5 9 -41 52 -80
95 -116 132 -243 226 -395 293 -52 23 -102 42 -111 43 -9 0 -32 6 -50 14 -106
44 -376 57 -534 26z"/>
</g>
</svg>
